HIERARCHY
ROOT Hips
{
	OFFSET 0.000000 0.000000 0.000000
	CHANNELS 6 Xposition Yposition Zposition Zrotation Yrotation Xrotation 
	JOINT Spine1
	{
		OFFSET -0.013727 5.003762 -0.053727
		CHANNELS 3 Zrotation Yrotation Xrotation
		JOINT Spine2
		{
			OFFSET -0.000000 7.125302 -0.029825
			CHANNELS 3 Zrotation Yrotation Xrotation
			JOINT Chest
			{
				OFFSET -0.000001 7.550064 -0.815971
				CHANNELS 3 Zrotation Yrotation Xrotation
				JOINT Neck1
				{
					OFFSET -0.181677 26.311296 -0.553349
					CHANNELS 3 Zrotation Yrotation Xrotation
					JOINT Neck2
					{
						OFFSET -0.000003 7.709399 2.302585
						CHANNELS 3 Zrotation Yrotation Xrotation
						JOINT Head
						{
							OFFSET -0.000005 6.128914 1.953708
							CHANNELS 3 Zrotation Yrotation Xrotation
							JOINT HeadEnd
							{
								OFFSET 0.003598 16.065401 -1.835379
								CHANNELS 3 Zrotation Yrotation Xrotation
								End Site
								{
									OFFSET 0.000000 0.000000 0.000000
								}
							}
							JOINT Jaw
							{
								OFFSET 0.002637 0.475591 3.094941
								CHANNELS 3 Zrotation Yrotation Xrotation
								End Site
								{
									OFFSET 0.000000 0.000000 0.000000
								}
							}
							JOINT LeftEye
							{
								OFFSET 3.206380 5.380207 7.586883
								CHANNELS 3 Zrotation Yrotation Xrotation
								End Site
								{
									OFFSET 0.000000 0.000000 0.000000
								}
							}
							JOINT RightEye
							{
								OFFSET -3.222440 5.361866 7.558233
								CHANNELS 3 Zrotation Yrotation Xrotation
								End Site
								{
									OFFSET 0.000000 0.000000 0.000000
								}
							}
						}
					}
				}
				JOINT LeftShoulder
				{
					OFFSET 1.621652 23.237165 5.113413
					CHANNELS 3 Zrotation Yrotation Xrotation
					JOINT LeftArm
					{
						OFFSET 14.919845 0.000001 -5.502326
						CHANNELS 3 Zrotation Yrotation Xrotation
						JOINT LeftForeArm
						{
							OFFSET 28.739309 0.000002 -0.002588
							CHANNELS 3 Zrotation Yrotation Xrotation
							JOINT LeftHand
							{
								OFFSET 27.093979 -0.000003 0.002608
								CHANNELS 3 Zrotation Yrotation Xrotation
								JOINT LeftHandThumb1
								{
									OFFSET 2.276481 -1.392045 3.191413
									CHANNELS 3 Zrotation Yrotation Xrotation
									JOINT LeftHandThumb2
									{
										OFFSET 4.012841 -1.828126 1.641656
										CHANNELS 3 Zrotation Yrotation Xrotation
										JOINT LeftHandThumb3
										{
											OFFSET 2.798517 0.000001 -0.000004
											CHANNELS 3 Zrotation Yrotation Xrotation
											JOINT LeftHandThumbEnd
											{
												OFFSET 3.180791 -0.000002 0.000003
												CHANNELS 3 Zrotation Yrotation Xrotation
												End Site
												{
													OFFSET 0.000000 0.000000 0.000000
												}
											}
										}
									}
								}
								JOINT LeftHandIndex1
								{
									OFFSET 3.247554 -0.531998 2.296169
									CHANNELS 3 Zrotation Yrotation Xrotation
									JOINT LeftHandIndex2
									{
										OFFSET 6.364578 0.012061 0.178599
										CHANNELS 3 Zrotation Yrotation Xrotation
										JOINT LeftHandIndex3
										{
											OFFSET 3.662367 0.000001 0.000000
											CHANNELS 3 Zrotation Yrotation Xrotation
											JOINT LeftHandIndex4
											{
												OFFSET 2.329243 0.000003 0.000004
												CHANNELS 3 Zrotation Yrotation Xrotation
												JOINT LeftHandIndexEnd
												{
													OFFSET 2.759619 -0.180538 -0.113024
													CHANNELS 3 Zrotation Yrotation Xrotation
													End Site
													{
														OFFSET 0.000000 0.000000 0.000000
													}
												}
											}
										}
									}
								}
								JOINT LeftHandMiddle1
								{
									OFFSET 3.163498 0.240982 1.000332
									CHANNELS 3 Zrotation Yrotation Xrotation
									JOINT LeftHandMiddle2
									{
										OFFSET 6.190778 -0.259276 -1.002548
										CHANNELS 3 Zrotation Yrotation Xrotation
										JOINT LeftHandMiddle3
										{
											OFFSET 4.356522 -0.000006 0.000000
											CHANNELS 3 Zrotation Yrotation Xrotation
											JOINT LeftHandMiddle4
											{
												OFFSET 2.996875 -0.000006 0.000000
												CHANNELS 3 Zrotation Yrotation Xrotation
												JOINT LeftHandMiddleEnd
												{
													OFFSET 2.304294 -0.294572 -0.031740
													CHANNELS 3 Zrotation Yrotation Xrotation
													End Site
													{
														OFFSET 0.000000 0.000000 0.000000
													}
												}
											}
										}
									}
								}
								JOINT LeftHandRing1
								{
									OFFSET 2.882642 -0.053650 -0.322543
									CHANNELS 3 Zrotation Yrotation Xrotation
									JOINT LeftHandRing2
									{
										OFFSET 5.854543 -0.486203 -1.373841
										CHANNELS 3 Zrotation Yrotation Xrotation
										JOINT LeftHandRing3
										{
											OFFSET 4.350581 0.000001 0.000003
											CHANNELS 3 Zrotation Yrotation Xrotation
											JOINT LeftHandRing4
											{
												OFFSET 2.651325 0.000008 0.000004
												CHANNELS 3 Zrotation Yrotation Xrotation
												JOINT LeftHandRingEnd
												{
													OFFSET 1.936110 0.077687 -0.000070
													CHANNELS 3 Zrotation Yrotation Xrotation
													End Site
													{
														OFFSET 0.000000 0.000000 0.000000
													}
												}
											}
										}
									}
								}
								JOINT LeftHandPinky1
								{
									OFFSET 2.865499 -0.310004 -1.600378
									CHANNELS 3 Zrotation Yrotation Xrotation
									JOINT LeftHandPinky2
									{
										OFFSET 5.087853 -1.331141 -1.771231
										CHANNELS 3 Zrotation Yrotation Xrotation
										JOINT LeftHandPinky3
										{
											OFFSET 3.070975 0.000003 0.000000
											CHANNELS 3 Zrotation Yrotation Xrotation
											JOINT LeftHandPinky4
											{
												OFFSET 1.549667 0.000000 0.000000
												CHANNELS 3 Zrotation Yrotation Xrotation
												JOINT LeftHandPinkyEnd
												{
													OFFSET 1.944894 -0.157802 0.057219
													CHANNELS 3 Zrotation Yrotation Xrotation
													End Site
													{
														OFFSET 0.000000 0.000000 0.000000
													}
												}
											}
										}
									}
								}
							}
						}
					}
				}
				JOINT RightShoulder
				{
					OFFSET -1.380118 23.180309 5.214158
					CHANNELS 3 Zrotation Yrotation Xrotation
					JOINT RightArm
					{
						OFFSET -15.037197 0.000012 -5.545604
						CHANNELS 3 Zrotation Yrotation Xrotation
						JOINT RightForeArm
						{
							OFFSET -28.736639 0.000002 -0.002598
							CHANNELS 3 Zrotation Yrotation Xrotation
							JOINT RightHand
							{
								OFFSET -27.133617 0.000001 0.002613
								CHANNELS 3 Zrotation Yrotation Xrotation
								JOINT RightHandThumb1
								{
									OFFSET -2.274036 -1.383990 3.163128
									CHANNELS 3 Zrotation Yrotation Xrotation
									JOINT RightHandThumb2
									{
										OFFSET -4.011429 -1.827467 1.640915
										CHANNELS 3 Zrotation Yrotation Xrotation
										JOINT RightHandThumb3
										{
											OFFSET -2.794935 -0.000003 -0.000003
											CHANNELS 3 Zrotation Yrotation Xrotation
											JOINT RightHandThumbEnd
											{
												OFFSET -3.183855 0.000003 0.000000
												CHANNELS 3 Zrotation Yrotation Xrotation
												End Site
												{
													OFFSET 0.000000 0.000000 0.000000
												}
											}
										}
									}
								}
								JOINT RightHandIndex1
								{
									OFFSET -3.253269 -0.520060 2.282866
									CHANNELS 3 Zrotation Yrotation Xrotation
									JOINT RightHandIndex2
									{
										OFFSET -6.341918 0.012473 0.178266
										CHANNELS 3 Zrotation Yrotation Xrotation
										JOINT RightHandIndex3
										{
											OFFSET -3.654874 -0.000009 -0.000001
											CHANNELS 3 Zrotation Yrotation Xrotation
											JOINT RightHandIndex4
											{
												OFFSET -2.327586 -0.000000 0.000001
												CHANNELS 3 Zrotation Yrotation Xrotation
												JOINT RightHandIndexEnd
												{
													OFFSET -2.761789 -0.180657 -0.113078
													CHANNELS 3 Zrotation Yrotation Xrotation
													End Site
													{
														OFFSET 0.000000 0.000000 0.000000
													}
												}
											}
										}
									}
								}
								JOINT RightHandMiddle1
								{
									OFFSET -3.168105 0.246593 1.001030
									CHANNELS 3 Zrotation Yrotation Xrotation
									JOINT RightHandMiddle2
									{
										OFFSET -6.180829 -0.258836 -1.000896
										CHANNELS 3 Zrotation Yrotation Xrotation
										JOINT RightHandMiddle3
										{
											OFFSET -4.348905 -0.000000 -0.000000
											CHANNELS 3 Zrotation Yrotation Xrotation
											JOINT RightHandMiddle4
											{
												OFFSET -3.000243 -0.000002 -0.000002
												CHANNELS 3 Zrotation Yrotation Xrotation
												JOINT RightHandMiddleEnd
												{
													OFFSET -2.302518 -0.294370 -0.031706
													CHANNELS 3 Zrotation Yrotation Xrotation
													End Site
													{
														OFFSET 0.000000 0.000000 0.000000
													}
												}
											}
										}
									}
								}
								JOINT RightHandRing1
								{
									OFFSET -2.885693 -0.067952 -0.308858
									CHANNELS 3 Zrotation Yrotation Xrotation
									JOINT RightHandRing2
									{
										OFFSET -5.854198 -0.486132 -1.373731
										CHANNELS 3 Zrotation Yrotation Xrotation
										JOINT RightHandRing3
										{
											OFFSET -4.338814 -0.000003 -0.000000
											CHANNELS 3 Zrotation Yrotation Xrotation
											JOINT RightHandRing4
											{
												OFFSET -2.654905 -0.000006 0.000004
												CHANNELS 3 Zrotation Yrotation Xrotation
												JOINT RightHandRingEnd
												{
													OFFSET -1.933570 0.077524 -0.000053
													CHANNELS 3 Zrotation Yrotation Xrotation
													End Site
													{
														OFFSET 0.000000 0.000000 0.000000
													}
												}
											}
										}
									}
								}
								JOINT RightHandPinky1
								{
									OFFSET -2.866429 -0.342799 -1.584145
									CHANNELS 3 Zrotation Yrotation Xrotation
									JOINT RightHandPinky2
									{
										OFFSET -5.091370 -1.332054 -1.772385
										CHANNELS 3 Zrotation Yrotation Xrotation
										JOINT RightHandPinky3
										{
											OFFSET -3.062666 -0.000007 0.000000
											CHANNELS 3 Zrotation Yrotation Xrotation
											JOINT RightHandPinky4
											{
												OFFSET -1.546527 0.000006 -0.000002
												CHANNELS 3 Zrotation Yrotation Xrotation
												JOINT RightHandPinkyEnd
												{
													OFFSET -1.945122 -0.157722 0.057211
													CHANNELS 3 Zrotation Yrotation Xrotation
													End Site
													{
														OFFSET 0.000000 0.000000 0.000000
													}
												}
											}
										}
									}
								}
							}
						}
					}
				}
			}
		}
	}
	JOINT LeftLeg
	{
		OFFSET 10.043214 -8.434526 2.595655
		CHANNELS 3 Zrotation Yrotation Xrotation
		JOINT LeftShin
		{
			OFFSET -0.000001 -43.221752 -0.802913
			CHANNELS 3 Zrotation Yrotation Xrotation
			JOINT LeftFoot
			{
				OFFSET 0.000001 -42.155094 -3.481523
				CHANNELS 3 Zrotation Yrotation Xrotation
				JOINT LeftToeBase
				{
					OFFSET 0.000000 -5.059475 13.231529
					CHANNELS 3 Zrotation Yrotation Xrotation
					JOINT LeftToeEnd
					{
						OFFSET -0.009607 -1.647615 6.513017
						CHANNELS 3 Zrotation Yrotation Xrotation
						End Site
						{
							OFFSET 0.000000 0.000000 0.000000
						}
					}
				}
			}
		}
	}
	JOINT RightLeg
	{
		OFFSET -10.047277 -8.295259 2.620317
		CHANNELS 3 Zrotation Yrotation Xrotation
		JOINT RightShin
		{
			OFFSET 0.000001 -43.362209 -0.805556
			CHANNELS 3 Zrotation Yrotation Xrotation
			JOINT RightFoot
			{
				OFFSET 0.000002 -42.117393 -3.478398
				CHANNELS 3 Zrotation Yrotation Xrotation
				JOINT RightToeBase
				{
					OFFSET -0.000001 -5.079609 13.284196
					CHANNELS 3 Zrotation Yrotation Xrotation
					JOINT RightToeEnd
					{
						OFFSET 0.009532 -1.634384 6.460591
						CHANNELS 3 Zrotation Yrotation Xrotation
						End Site
						{
							OFFSET 0.000000 0.000000 0.000000
						}
					}
				}
			}
		}
	}
}
MOTION
Frames: 4
Frame Time: 0.033333
0.541933 96.225380 6.079556 -0.121743 0.507070 2.236637 0.153829 -0.310709 3.029186 -0.466120 -0.893352 -3.532650 -0.687701 -3.598663 8.563852 -10.746721 10.135152 16.020987 2.758455 12.553096 -3.320193 -3.754817 14.557486 -11.805758 0.000077 -0.000020 0.000005 0.034317 -0.200177 -0.031692 0.730580 -3.938370 -10.657745 -0.671624 3.549784 -10.622420 1.507664 -9.574598 8.502565 -30.238251 -29.541250 -46.181648 179.603210 -47.938950 -179.530380 9.191510 -2.505480 6.717728 -5.882100 9.861280 0.702591 -10.936860 -0.360575 7.156198 -0.000003 8.774815 -0.000001 -16.721533 17.903006 5.767423 -1.844030 2.498503 -2.507275 -10.163590 4.678941 4.621105 -20.975994 -0.000003 0.000002 -21.226250 2.451695 -3.593995 -0.000000 -0.000007 -0.000000 -1.362680 2.240796 -0.746323 -21.334892 0.584909 3.008319 -13.821197 -0.000002 0.000001 -23.887133 -0.249077 -0.839481 -60.630112 2.666157 -1.393257 -0.294024 1.679687 0.833255 -14.218194 0.093215 1.300579 -34.211998 -0.287563 0.967171 -20.033180 0.964537 1.212842 0.000000 -0.000000 0.000000 -3.440387 0.788232 0.501654 -15.928169 -3.167305 2.999703 -6.338816 0.000000 0.000002 -18.123413 3.648179 -4.905662 -0.000005 -0.000001 -0.000002 -1.251868 1.892742 9.781533 77.362541 67.322731 35.133469 -178.533630 43.282433 -178.906616 -9.242652 -3.891589 -13.067016 2.243539 -5.255032 -3.180157 14.282875 -0.826593 6.952496 -0.000001 -12.690592 0.000001 15.991603 -18.036795 2.576294 1.665666 -1.955922 -2.878296 4.727794 -4.170584 4.993917 11.020510 0.000005 -0.000000 12.109033 -3.735711 -2.866778 -0.000001 0.000000 -0.000000 1.291984 -1.928549 -1.498088 14.800111 0.567469 3.865602 14.242551 -1.341734 -6.660648 19.631935 0.143924 -0.648243 50.117386 -0.816277 -6.443285 0.353028 -1.511150 -0.031938 20.222773 3.684307 2.316629 18.787245 0.000003 0.000001 10.751610 -0.479867 1.397905 0.000000 0.000000 0.000000 3.273806 0.305945 -0.580109 21.486792 11.830366 2.266133 8.162917 0.000000 0.000000 18.399052 -3.798980 -4.940567 0.000003 -0.000001 -0.000002 9.623744 11.214647 -26.300117 -0.155559 -0.642990 22.873230 -10.692610 -0.205832 4.206725 1.648136 -1.876567 0.553443 0.000000 -0.000000 0.000002 -10.416820 -8.749040 -11.558107 0.148317 0.413741 28.440449 13.904778 0.081385 -15.693750 -1.421462 0.987539 -0.019042 0.000000 0.000000 -0.000001 
0.717294 96.221878 6.265776 -0.092580 0.563291 2.057843 0.099320 -0.271457 2.984040 -0.413478 -0.957613 -3.569961 -0.680582 -3.572223 8.649848 -10.744310 10.042912 15.919427 2.751475 12.651114 -3.322266 -3.813332 14.602720 -11.654492 0.000077 -0.000020 0.000005 0.037824 -0.187745 -0.036753 0.737197 -3.943149 -10.690263 -0.669527 3.573393 -10.664030 1.445762 -9.579355 8.436334 -30.243860 -29.440357 -45.761600 179.410553 -48.092430 -179.540207 9.219259 -2.854779 6.462743 -5.882102 9.861278 0.702588 -10.936859 -0.360576 7.156197 -0.000001 8.774809 -0.000003 -16.670635 17.853382 5.799553 -1.844030 2.498503 -2.507276 -10.163589 4.678939 4.621102 -20.975998 -0.000003 0.000002 -21.226255 2.451692 -3.593993 -0.000000 -0.000005 -0.000001 -1.362681 2.240795 -0.746324 -21.334896 0.584909 3.008321 -13.821197 -0.000002 0.000003 -23.887131 -0.249077 -0.839480 -60.611374 2.561311 -1.240808 -0.294025 1.679686 0.833253 -14.218194 0.093214 1.300580 -34.212006 -0.287563 0.967173 -20.033180 0.964535 1.212843 0.000000 -0.000000 0.000000 -3.440385 0.788232 0.501655 -15.928169 -3.167306 2.999704 -6.338817 0.000000 0.000003 -18.123413 3.648176 -4.905663 -0.000003 0.000001 -0.000002 -1.227761 1.969943 9.802995 77.488686 67.192604 35.296406 -178.557144 43.253796 -178.893372 -9.124629 -3.773853 -13.183821 2.243540 -5.255032 -3.180156 14.282875 -0.826594 6.952496 0.000001 -12.690592 -0.000000 15.985094 -18.027069 2.618763 1.665664 -1.955920 -2.878297 4.727794 -4.170586 4.993920 11.020509 0.000003 -0.000001 12.109034 -3.735713 -2.866780 -0.000000 -0.000000 -0.000001 1.291984 -1.928547 -1.498089 14.800111 0.567466 3.865602 14.242553 -1.341736 -6.660653 19.631939 0.143925 -0.648246 50.017155 -0.796968 -6.372494 0.353028 -1.511148 -0.031941 20.222771 3.684306 2.316627 18.787247 0.000004 -0.000000 10.751610 -0.479868 1.397904 0.000000 0.000000 -0.000001 3.273804 0.305947 -0.580110 21.486790 11.830359 2.266131 8.162914 0.000000 0.000000 18.399054 -3.798980 -4.940571 0.000003 -0.000002 -0.000000 9.591268 10.878447 -26.214685 -0.152105 -0.606693 23.341314 -10.541192 -0.064362 3.868379 1.646081 -1.905233 0.546730 0.000000 0.000000 0.000002 -10.605901 -8.715273 -11.176449 0.133589 0.440821 28.364767 14.080219 0.156931 -15.599773 -1.424355 0.972041 -0.093008 0.000000 0.000000 -0.000001 
0.945606 96.127953 6.536805 -0.080758 0.626794 1.887385 0.070087 -0.261351 2.957170 -0.404827 -0.990618 -3.606431 -0.656679 -3.530766 8.709235 -10.647685 9.950670 15.855141 2.735685 12.715705 -3.341274 -3.844303 14.620687 -11.549564 0.000076 -0.000021 0.000006 0.046411 -0.198807 -0.027913 0.745238 -3.970910 -10.721046 -0.658585 3.564241 -10.688779 1.502766 -9.675886 8.357468 -30.306309 -29.339014 -45.456738 179.321915 -48.282825 -179.544601 9.171058 -3.157181 6.105596 -5.882102 9.861279 0.702590 -10.936857 -0.360576 7.156197 -0.000002 8.774810 -0.000003 -16.610508 17.789223 5.818546 -1.844030 2.498502 -2.507276 -10.163589 4.678940 4.621103 -20.975998 -0.000004 -0.000000 -21.226255 2.451690 -3.593996 0.000000 -0.000004 -0.000000 -1.362681 2.240797 -0.746322 -21.334892 0.584909 3.008320 -13.821195 -0.000002 0.000002 -23.887129 -0.249078 -0.839482 -60.624168 2.544328 -1.203013 -0.294024 1.679686 0.833254 -14.218192 0.093214 1.300578 -34.211998 -0.287564 0.967169 -20.033176 0.964533 1.212841 0.000000 -0.000001 -0.000000 -3.440386 0.788232 0.501654 -15.928167 -3.167306 2.999701 -6.338818 0.000000 0.000001 -18.123415 3.648177 -4.905663 -0.000004 -0.000000 -0.000002 -1.165618 1.945426 9.786827 77.819206 67.056816 35.542061 -178.647980 43.287022 -178.924515 -9.012982 -3.626650 -13.400064 2.243539 -5.255031 -3.180156 14.282873 -0.826593 6.952498 -0.000001 -12.690593 0.000001 15.928968 -17.998501 2.648726 1.665665 -1.955920 -2.878295 4.727794 -4.170583 4.993920 11.020509 0.000004 -0.000001 12.109035 -3.735709 -2.866779 -0.000000 0.000001 -0.000000 1.291983 -1.928547 -1.498089 14.800113 0.567468 3.865606 14.242553 -1.341732 -6.660646 19.631939 0.143925 -0.648242 49.909996 -0.790297 -6.353098 0.353028 -1.511149 -0.031941 20.222769 3.684307 2.316629 18.787245 0.000004 0.000001 10.751610 -0.479867 1.397905 0.000001 0.000001 0.000000 3.273805 0.305947 -0.580109 21.486794 11.830363 2.266133 8.162919 0.000001 0.000000 18.399055 -3.798976 -4.940565 0.000003 -0.000002 -0.000000 9.527376 10.647537 -26.273216 -0.132553 -0.544910 24.173456 -10.381879 -0.067946 3.109992 1.643355 -1.907710 0.604937 0.000000 0.000000 0.000002 -10.833450 -8.728076 -10.750651 0.123221 0.451110 28.312838 14.225208 0.315915 -15.819853 -1.428414 0.969362 -0.074808 -0.000000 -0.000000 -0.000001 
1.111890 95.988541 6.658350 -0.086285 0.672703 1.766673 0.057166 -0.262089 2.924085 -0.417022 -0.979582 -3.639339 -0.615459 -3.542736 8.751648 -10.590938 9.914489 15.854316 2.742654 12.729083 -3.332413 -3.873040 14.593805 -11.482106 0.000077 -0.000021 0.000006 0.047496 -0.198634 -0.024051 0.743483 -3.968483 -10.740499 -0.655570 3.567649 -10.706758 1.613418 -9.711732 8.227788 -30.508415 -29.244652 -45.179985 179.430634 -48.487396 -179.655807 9.130604 -3.367389 5.724820 -5.882100 9.861278 0.702591 -10.936859 -0.360576 7.156196 -0.000003 8.774812 -0.000001 -16.568842 17.746105 5.849967 -1.844032 2.498503 -2.507275 -10.163587 4.678941 4.621106 -20.975992 -0.000003 0.000004 -21.226250 2.451690 -3.593994 -0.000000 -0.000006 -0.000001 -1.362680 2.240796 -0.746322 -21.334892 0.584909 3.008321 -13.821194 -0.000002 0.000003 -23.887131 -0.249078 -0.839482 -60.646908 2.543436 -1.228091 -0.294025 1.679686 0.833256 -14.218192 0.093214 1.300579 -34.211998 -0.287563 0.967171 -20.033176 0.964535 1.212842 0.000000 -0.000002 -0.000000 -3.440387 0.788233 0.501656 -15.928167 -3.167305 2.999704 -6.338818 -0.000001 0.000002 -18.123411 3.648177 -4.905659 -0.000003 0.000001 -0.000002 -1.096569 1.913942 9.698072 78.266174 66.871208 35.759949 -178.808884 43.294884 -179.020370 -8.923318 -3.614630 -13.826589 2.243539 -5.255033 -3.180151 14.282877 -0.826594 6.952494 0.000001 -12.690591 -0.000001 15.850133 -17.952530 2.642672 1.665665 -1.955920 -2.878298 4.727794 -4.170585 4.993918 11.020513 0.000003 -0.000001 12.109033 -3.735710 -2.866779 -0.000000 0.000000 0.000001 1.291983 -1.928547 -1.498088 14.800117 0.567468 3.865607 14.242554 -1.341735 -6.660648 19.631939 0.143923 -0.648244 49.841713 -0.800624 -6.313812 0.353029 -1.511149 -0.031940 20.222771 3.684304 2.316628 18.787245 0.000004 -0.000000 10.751612 -0.479870 1.397904 0.000000 0.000000 -0.000001 3.273805 0.305945 -0.580110 21.486790 11.830359 2.266129 8.162914 0.000001 -0.000002 18.399055 -3.798978 -4.940568 0.000003 -0.000001 -0.000001 9.482424 10.546711 -26.455675 -0.119891 -0.478568 24.935896 -10.252409 -0.102008 2.432099 1.641507 -1.910176 0.714989 0.000000 -0.000000 0.000002 -10.990234 -8.766423 -10.551925 0.123785 0.438054 28.391964 14.371965 0.486297 -16.210794 -1.428386 0.979528 0.043646 0.000000 0.000000 -0.000001 
